<svg xmlns="http://www.w3.org/2000/svg" xmlns:svg="http://www.w3.org/2000/svg" id="svg6349" width="744.094" height="1052.362" version="1.1"><defs id="defs6351"><marker id="Arrow1Send" orient="auto" refX="0" refY="0" style="overflow:visible"><path id="path4500" d="M 0.0,0.0 L 5.0,-5.0 L -12.5,0.0 L 5.0,5.0 L 0.0,0.0 z" transform="scale(0.2) rotate(180) translate(6,0)" style="fill-rule:evenodd;stroke:#000;stroke-width:1pt;marker-start:none"/></marker><marker id="Arrow1Mend" orient="auto" refX="0" refY="0" style="overflow:visible"><path id="path4494" d="M 0.0,0.0 L 5.0,-5.0 L -12.5,0.0 L 5.0,5.0 L 0.0,0.0 z" transform="scale(0.4) rotate(180) translate(10,0)" style="fill-rule:evenodd;stroke:#000;stroke-width:1pt;marker-start:none"/></marker><marker id="Arrow1Lend" orient="auto" refX="0" refY="0" style="overflow:visible"><path id="path4488" d="M 0.0,0.0 L 5.0,-5.0 L -12.5,0.0 L 5.0,5.0 L 0.0,0.0 z" transform="scale(0.8) rotate(180) translate(12.5,0)" style="fill-rule:evenodd;stroke:#000;stroke-width:1pt;marker-start:none"/></marker><marker id="TriangleOutL" orient="auto" refX="0" refY="0" style="overflow:visible"><path id="path4628" d="M 5.77,0.0 L -2.88,5.0 L -2.88,-5.0 L 5.77,0.0 z" transform="scale(0.8)" style="fill-rule:evenodd;stroke:#000;stroke-width:1pt;marker-start:none"/></marker></defs><metadata id="metadata6354"/><g id="layer1"><path style="fill:none;stroke:#7d7d7d;stroke-width:1;stroke-linecap:butt;stroke-linejoin:miter;stroke-opacity:1;stroke-miterlimit:4;stroke-dasharray:1,3;stroke-dashoffset:0" id="path9018" d="m 291.78571,534.50504 66.42858,52.5"/><path style="fill:none;stroke:#7d7d7d;stroke-width:1px;stroke-linecap:butt;stroke-linejoin:miter;stroke-opacity:1" id="path9020" d="m 358.21429,586.6479 80.71429,-26.07143"/><path style="fill:none;stroke:#7d7d7d;stroke-width:1;stroke-linecap:butt;stroke-linejoin:miter;stroke-opacity:1;stroke-miterlimit:4;stroke-dasharray:1,3;stroke-dashoffset:0" id="path9022" d="m 438.57143,560.57647 56.78572,32.14286"/><path style="fill:#b0ddb3;fill-opacity:1;stroke:#7d7d7d;stroke-width:1;stroke-linecap:round;stroke-linejoin:round;stroke-miterlimit:4;stroke-opacity:1;stroke-dasharray:none;stroke-dashoffset:0" id="path6867" d="m 244.45692,611.93567 a 2.5253813,2.5253813 0 1 1 -5.05077,0 2.5253813,2.5253813 0 1 1 5.05077,0 z" transform="translate(49.053675,-77.413343)"/><path style="fill:#b0ddb3;fill-opacity:1;stroke:#7d7d7d;stroke-width:1;stroke-linecap:round;stroke-linejoin:round;stroke-miterlimit:4;stroke-opacity:1;stroke-dasharray:none;stroke-dashoffset:0" id="path6867-1" d="m 244.45692,611.93567 a 2.5253813,2.5253813 0 1 1 -5.05077,0 2.5253813,2.5253813 0 1 1 5.05077,0 z" transform="translate(116.32238,-24.974615)"/><path id="path9012" d="m 244.45692,611.93567 a 2.5253813,2.5253813 0 1 1 -5.05077,0 2.5253813,2.5253813 0 1 1 5.05077,0 z" transform="translate(254.91814,-18.60732)" style="fill:#b0ddb3;fill-opacity:1;stroke:#7d7d7d;stroke-width:1;stroke-linecap:round;stroke-linejoin:round;stroke-miterlimit:4;stroke-opacity:1;stroke-dasharray:none;stroke-dashoffset:0"/><path style="fill:#b0ddb3;fill-opacity:1;stroke:#7d7d7d;stroke-width:1;stroke-linecap:round;stroke-linejoin:round;stroke-miterlimit:4;stroke-opacity:1;stroke-dasharray:none;stroke-dashoffset:0" id="path9014" d="m 244.45692,611.93567 a 2.5253813,2.5253813 0 1 1 -5.05077,0 2.5253813,2.5253813 0 1 1 5.05077,0 z" transform="translate(197.06099,-51.10732)"/><text style="font-size:14px;font-style:normal;font-variant:normal;font-weight:400;font-stretch:normal;text-align:start;line-height:125%;letter-spacing:0;word-spacing:0;writing-mode:lr-tb;text-anchor:start;fill:#000;fill-opacity:1;stroke:none;font-family:Calibri;-inkscape-font-specification:Calibri" id="text9024" x="492.143" y="610.576" xml:space="preserve"><tspan id="tspan9026" x="492.143" y="610.576">v0</tspan></text><text id="text9028" x="432.5" y="577.362" xml:space="preserve" style="font-size:14px;font-style:normal;font-variant:normal;font-weight:400;font-stretch:normal;text-align:start;line-height:125%;letter-spacing:0;word-spacing:0;writing-mode:lr-tb;text-anchor:start;fill:#000;fill-opacity:1;stroke:none;font-family:Calibri;-inkscape-font-specification:Calibri"><tspan id="tspan9030" x="432.5" y="577.362">v1</tspan></text><text style="font-size:14px;font-style:normal;font-variant:normal;font-weight:400;font-stretch:normal;text-align:start;line-height:125%;letter-spacing:0;word-spacing:0;writing-mode:lr-tb;text-anchor:start;fill:#000;fill-opacity:1;stroke:none;font-family:Calibri;-inkscape-font-specification:Calibri" id="text9032" x="349.643" y="602.719" xml:space="preserve"><tspan id="tspan9034" x="349.643" y="602.719">v2</tspan></text><text id="text9036" x="283.929" y="552.005" xml:space="preserve" style="font-size:14px;font-style:normal;font-variant:normal;font-weight:400;font-stretch:normal;text-align:start;line-height:125%;letter-spacing:0;word-spacing:0;writing-mode:lr-tb;text-anchor:start;fill:#000;fill-opacity:1;stroke:none;font-family:Calibri;-inkscape-font-specification:Calibri"><tspan id="tspan9038" x="283.929" y="552.005">v3</tspan></text><text style="font-size:14px;font-style:normal;font-variant:normal;font-weight:400;font-stretch:normal;text-align:start;line-height:125%;letter-spacing:0;word-spacing:0;writing-mode:lr-tb;text-anchor:start;fill:#000;fill-opacity:1;stroke:none;font-family:Calibri;-inkscape-font-specification:Calibri" id="text9040" x="318.571" y="630.934" xml:space="preserve"><tspan id="tspan9042" x="318.571" y="630.934">v0 and v3 are ghost vertices</tspan></text></g></svg>