<svg xmlns="http://www.w3.org/2000/svg" xmlns:svg="http://www.w3.org/2000/svg" id="svg2" width="744.094" height="1052.362" version="1.1"><defs id="defs4"><marker style="overflow:visible" id="Arrow2Mstart" orient="auto" refX="0" refY="0"><path style="font-size:12;fill-rule:evenodd;stroke-width:.625;stroke-linejoin:round" id="path3660" d="M 8.7185878,4.0337352 L -2.2072895,0.016013256 L 8.7185884,-4.0017078 C 6.9730900,-1.6296469 6.9831476,1.6157441 8.7185878,4.0337352 z" transform="scale(0.6) translate(0,0)"/></marker><marker style="overflow:visible" id="Arrow2Mend" orient="auto" refX="0" refY="0"><path style="font-size:12;fill-rule:evenodd;stroke-width:.625;stroke-linejoin:round" id="path3663" d="M 8.7185878,4.0337352 L -2.2072895,0.016013256 L 8.7185884,-4.0017078 C 6.9730900,-1.6296469 6.9831476,1.6157441 8.7185878,4.0337352 z" transform="scale(0.6) rotate(180) translate(0,0)"/></marker><marker style="overflow:visible" id="Arrow1Mend" orient="auto" refX="0" refY="0"><path style="fill-rule:evenodd;stroke:#000;stroke-width:1pt;marker-start:none" id="path3645" d="M 0.0,0.0 L 5.0,-5.0 L -12.5,0.0 L 5.0,5.0 L 0.0,0.0 z" transform="scale(0.4) rotate(180) translate(10,0)"/></marker><marker style="overflow:visible" id="Arrow2Lend" orient="auto" refX="0" refY="0"><path style="font-size:12;fill-rule:evenodd;stroke-width:.625;stroke-linejoin:round" id="path3657" d="M 8.7185878,4.0337352 L -2.2072895,0.016013256 L 8.7185884,-4.0017078 C 6.9730900,-1.6296469 6.9831476,1.6157441 8.7185878,4.0337352 z" transform="scale(1.1) rotate(180) translate(1,0)"/></marker><marker style="overflow:visible" id="Arrow1Lend" orient="auto" refX="0" refY="0"><path style="fill-rule:evenodd;stroke:#000;stroke-width:1pt;marker-start:none" id="path3639" d="M 0.0,0.0 L 5.0,-5.0 L -12.5,0.0 L 5.0,5.0 L 0.0,0.0 z" transform="scale(0.8) rotate(180) translate(12.5,0)"/></marker><marker style="overflow:visible" id="Arrow2Lstart" orient="auto" refX="0" refY="0"><path style="font-size:12;fill-rule:evenodd;stroke-width:.625;stroke-linejoin:round" id="path3654" d="M 8.7185878,4.0337352 L -2.2072895,0.016013256 L 8.7185884,-4.0017078 C 6.9730900,-1.6296469 6.9831476,1.6157441 8.7185878,4.0337352 z" transform="scale(1.1) translate(1,0)"/></marker></defs><metadata id="metadata7"/><g id="layer1"><path id="path5829" d="m 289.5,466.36218 26,47.5 57.5,43.5 77.5,-70 -17,-61.5 -70.5,-4 -73.5,44.5 z" style="fill:#d7e3f4;stroke:#000;stroke-width:1px;stroke-linecap:butt;stroke-linejoin:miter;stroke-opacity:1;fill-opacity:1"/><path id="path3928" d="m 485.96875,540.6875 a 6.4361742,6.4361742 0 0 0 -3.0625,0.9375 l -73.5,44.5 a 6.4361742,6.4361742 0 0 0 -2.3125,8.59375 l 26,47.5 A 6.4361742,6.4361742 0 0 0 434.875,644.25 l 57.5,43.5 a 6.4361742,6.4361742 0 0 0 8.1875,-0.34375 l 77.5,-70 a 6.4361742,6.4361742 0 0 0 1.875,-6.5 l -17,-61.5 a 6.4361742,6.4361742 0 0 0 -5.8125,-4.71875 l -70.5,-4 a 6.4361742,6.4361742 0 0 0 -0.65625,0 z" transform="translate(-122.68303,-125.1579)" style="fill:none;stroke:#000;stroke-width:1;stroke-linecap:round;stroke-linejoin:round;stroke-miterlimit:4;stroke-opacity:1;stroke-dasharray:1,4;stroke-dashoffset:0"/><text id="text3930" x="409.415" y="550.67" xml:space="preserve" style="font-size:14px;font-style:normal;font-variant:normal;font-weight:400;font-stretch:normal;text-align:start;line-height:125%;letter-spacing:0;word-spacing:0;writing-mode:lr-tb;text-anchor:start;fill:#000;fill-opacity:1;stroke:none;font-family:Calibri;-inkscape-font-specification:Calibri"><tspan id="tspan3934" x="409.415" y="550.67">polygon skin</tspan></text></g></svg>