<svg xmlns="http://www.w3.org/2000/svg" xmlns:svg="http://www.w3.org/2000/svg" id="svg5128" width="744.094" height="1052.362" version="1.1"><defs id="defs5130"><marker id="Arrow2Lend" orient="auto" refX="0" refY="0" style="overflow:visible"><path id="path3807" d="M 8.7185878,4.0337352 L -2.2072895,0.016013256 L 8.7185884,-4.0017078 C 6.9730900,-1.6296469 6.9831476,1.6157441 8.7185878,4.0337352 z" transform="scale(1.1) rotate(180) translate(1,0)" style="font-size:12;fill-rule:evenodd;stroke-width:.625;stroke-linejoin:round"/></marker><marker id="Arrow1Lend" orient="auto" refX="0" refY="0" style="overflow:visible"><path id="path3789" d="M 0.0,0.0 L 5.0,-5.0 L -12.5,0.0 L 5.0,5.0 L 0.0,0.0 z" transform="scale(0.8) rotate(180) translate(12.5,0)" style="fill-rule:evenodd;stroke:#000;stroke-width:1pt;marker-start:none"/></marker><marker id="Arrow2Lstart" orient="auto" refX="0" refY="0" style="overflow:visible"><path id="path3804" d="M 8.7185878,4.0337352 L -2.2072895,0.016013256 L 8.7185884,-4.0017078 C 6.9730900,-1.6296469 6.9831476,1.6157441 8.7185878,4.0337352 z" transform="scale(1.1) translate(1,0)" style="font-size:12;fill-rule:evenodd;stroke-width:.625;stroke-linejoin:round"/></marker><marker id="Arrow1Mstart" orient="auto" refX="0" refY="0" style="overflow:visible"><path id="path3792" d="M 0.0,0.0 L 5.0,-5.0 L -12.5,0.0 L 5.0,5.0 L 0.0,0.0 z" transform="scale(0.4) translate(10,0)" style="fill-rule:evenodd;stroke:#000;stroke-width:1pt;marker-start:none"/></marker><marker id="Arrow1Lstart" orient="auto" refX="0" refY="0" style="overflow:visible"><path id="path3786" d="M 0.0,0.0 L 5.0,-5.0 L -12.5,0.0 L 5.0,5.0 L 0.0,0.0 z" transform="scale(0.8) translate(12.5,0)" style="fill-rule:evenodd;stroke:#000;stroke-width:1pt;marker-start:none"/></marker></defs><metadata id="metadata5133"/><g id="layer1"><rect style="fill:#d7e3f4;stroke:#767676;stroke-width:1;stroke-linecap:round;stroke-linejoin:round;stroke-miterlimit:4;stroke-opacity:1;stroke-dasharray:none;stroke-dashoffset:0;fill-opacity:1" id="rect5140" width="56.569" height="42.426" x="314.034" y="471.861"/><text style="font-size:14px;font-style:normal;font-variant:normal;font-weight:400;font-stretch:normal;text-align:start;line-height:125%;letter-spacing:0;word-spacing:0;writing-mode:lr-tb;text-anchor:start;fill:#000;fill-opacity:1;stroke:none;font-family:Calibri;-inkscape-font-specification:Calibri" id="text5770" x="304.317" y="614.286" xml:space="preserve"><tspan id="tspan2993" x="304.317" y="614.286">Wheel Joint</tspan></text><path style="fill:#d7e3f4;fill-opacity:1;stroke:#767676;stroke-width:1;stroke-linecap:round;stroke-linejoin:round;stroke-miterlimit:4;stroke-opacity:1;stroke-dasharray:none;stroke-dashoffset:0" id="path2997" d="m 368.21428,560.75507 a 16.964285,16.964285 0 1 1 -33.92856,0 16.964285,16.964285 0 1 1 33.92856,0 z" transform="translate(-8.5714286,-2.8571429)"/><path style="fill:none;stroke:#000;stroke-width:1px;stroke-linecap:butt;stroke-linejoin:miter;stroke-opacity:1" id="path3767" d="m 341.78571,492.36218 1.42858,98.92857"/><path id="path3779" d="m 210.71428,490.93362 a 2.1428571,2.1428571 0 1 1 -4.28571,0 2.1428571,2.1428571 0 1 1 4.28571,0 z" transform="translate(134.22402,67.175144)" style="fill:#000;fill-opacity:1;fill-rule:nonzero;stroke:none"/><path style="fill:none;stroke:#000;stroke-width:1px;stroke-linecap:butt;stroke-linejoin:miter;stroke-opacity:1;marker-start:url(#Arrow2Lstart);marker-mid:none;marker-end:url(#Arrow2Lend)" id="path3781" d="m 377.85714,506.46933 0.53571,45"/><path style="fill:none;stroke:#767676;stroke-opacity:1;marker-start:url(#Arrow2Lstart);marker-end:url(#Arrow2Lend)" id="path5547" d="m 308.31133,578.19168 a 23.392857,23.392857 0 0 1 -6.687,-42.90578" transform="translate(23.392857,2.5)"/></g></svg>